<svg xmlns="http://www.w3.org/2000/svg" viewBox="0 0 59.98 133.9">
  <title>mongodb_logo</title>
  <g>
    <path d="M50,139.1l-3.6-1.2s.4-18.2-6.1-19.5c-4.3-5,.7-213.9,16.3-.7,0,0-5.4,2.7-6.3,7.3s-.3,14.1-.3,14.1Z" transform="translate(-16.93 -5.2)" style="fill: #fff"/>
    <path d="M50,139.1l-3.6-1.2s.4-18.2-6.1-19.5c-4.3-5,.7-213.9,16.3-.7,0,0-5.4,2.7-6.3,7.3s-.3,14.1-.3,14.1Z" transform="translate(-16.93 -5.2)" style="fill: #a6a385"/>
    <path d="M51.9,121.5S83.1,101,75.8,58.3c-7-31-23.7-41.2-25.5-45.1a43.78,43.78,0,0,1-3.9-7.7l1.3,86.3c.1.2-2.6,26.5,4.2,29.7" transform="translate(-16.93 -5.2)" style="fill: #fff"/>
    <path d="M51.9,121.5S83.1,101,75.8,58.3c-7-31-23.7-41.2-25.5-45.1a43.78,43.78,0,0,1-3.9-7.7l1.3,86.3c.1.2-2.6,26.5,4.2,29.7" transform="translate(-16.93 -5.2)" style="fill: #499d4a"/>
    <path d="M44.6,122.7S15.3,102.7,17,67.5,39.3,15,43.3,11.8C46,9,46.1,8,46.3,5.2c1.8,3.9,1.5,58.5,1.7,65,.8,24.7-1.4,47.8-3.4,52.5Z" transform="translate(-16.93 -5.2)" style="fill: #fff"/>
    <path d="M44.6,122.7S15.3,102.7,17,67.5,39.3,15,43.3,11.8C46,9,46.1,8,46.3,5.2c1.8,3.9,1.5,58.5,1.7,65,.8,24.7-1.4,47.8-3.4,52.5Z" transform="translate(-16.93 -5.2)" style="fill: #58aa50"/>
  </g>
</svg>
