<svg xmlns="http://www.w3.org/2000/svg" xmlns:xlink="http://www.w3.org/1999/xlink" viewBox="0 0 96.28 117.22">
  <defs>
    <linearGradient id="a" x1="334.96" y1="13.3" x2="296.9" y2="-64.36" gradientTransform="matrix(1, 0, 0, -1, -78.31, 107.98)" gradientUnits="userSpaceOnUse">
      <stop offset="0" stop-color="#41873f"/>
      <stop offset="0.33" stop-color="#418b3d"/>
      <stop offset="0.64" stop-color="#409637"/>
      <stop offset="0.93" stop-color="#3fa92d"/>
      <stop offset="1" stop-color="#3fae2a"/>
    </linearGradient>
    <clipPath id="b" transform="translate(-191.96 -67.65)">
      <path d="M242.08,76.59a5.09,5.09,0,0,0-5.09,0L194.86,100.9a5.09,5.09,0,0,0-2.55,4.41V154a5.09,5.09,0,0,0,2.54,4.41L237,182.72a5.09,5.09,0,0,0,5.09,0l42.12-24.33a5.09,5.09,0,0,0,2.54-4.41V105.31a5.09,5.09,0,0,0-2.55-4.41Z" style="fill: none"/>
    </clipPath>
    <linearGradient id="c" x1="311.43" y1="-27.35" x2="418.23" y2="51.56" gradientTransform="matrix(1, 0, 0, -1, -78.31, 107.98)" gradientUnits="userSpaceOnUse">
      <stop offset="0.14" stop-color="#41873f"/>
      <stop offset="0.4" stop-color="#54a044"/>
      <stop offset="0.71" stop-color="#66b748"/>
      <stop offset="0.91" stop-color="#6cc04a"/>
    </linearGradient>
    <linearGradient id="d" x1="190.83" y1="204.18" x2="288.24" y2="204.18" gradientTransform="matrix(1, 0, 0, -1, -191.96, 204.35)" gradientUnits="userSpaceOnUse">
      <stop offset="0.09" stop-color="#6cc04a"/>
      <stop offset="0.29" stop-color="#66b748"/>
      <stop offset="0.6" stop-color="#54a044"/>
      <stop offset="0.86" stop-color="#41873f"/>
    </linearGradient>
    <linearGradient id="e" x1="269.13" y1="-21.61" x2="366.55" y2="-21.61" gradientTransform="matrix(1, 0, 0, -1, -78.31, 107.98)" xlink:href="#d"/>
    <linearGradient id="f" x1="190.83" y1="114.56" x2="288.24" y2="114.56" xlink:href="#d"/>
    <linearGradient id="g" x1="269.13" y1="-62.01" x2="366.55" y2="-62.01" gradientTransform="matrix(1, 0, 0, -1, -78.31, 107.98)" xlink:href="#d"/>
    <linearGradient id="h" x1="380.74" y1="15.59" x2="320.66" y2="-106.98" xlink:href="#a"/>
  </defs>
  <title>nodejs_logo</title>
  <g>
    <path d="M242.08,76.59a5.09,5.09,0,0,0-5.09,0L194.86,100.9a5.09,5.09,0,0,0-2.55,4.41V154a5.09,5.09,0,0,0,2.54,4.41L237,182.72a5.09,5.09,0,0,0,5.09,0l42.12-24.33a5.09,5.09,0,0,0,2.54-4.41V105.31a5.09,5.09,0,0,0-2.55-4.41Z" transform="translate(-191.96 -67.65)" style="fill: url(#a)"/>
    <g style="clip-path: url(#b)">
      <g>
        <g>
          <path d="M236.9,76.59,194.68,100.9a5.26,5.26,0,0,0-2.72,4.41V154a4.92,4.92,0,0,0,1.31,3.24l47.44-81.15A5.17,5.17,0,0,0,236.9,76.59Z" transform="translate(-191.96 -67.65)" style="fill: none"/>
          <path d="M241,183.21a5.07,5.07,0,0,0,1.19-.49l42.18-24.33A5.19,5.19,0,0,0,287,154V105.31a5,5,0,0,0-1.54-3.53Z" transform="translate(-191.96 -67.65)" style="fill: none"/>
          <path d="M284.29,100.9,242,76.59a5.06,5.06,0,0,0-1.32-.53l-47.44,81.15a5.8,5.8,0,0,0,1.42,1.17L237,182.71a5.14,5.14,0,0,0,3.93.49l44.47-81.44A5.54,5.54,0,0,0,284.29,100.9Z" transform="translate(-191.96 -67.65)" style="fill: url(#c)"/>
        </g>
        <g>
          <path d="M287,154V105.31a5.21,5.21,0,0,0-2.67-4.41L242,76.59a5.07,5.07,0,0,0-1.55-.57l46.32,79.13A4.68,4.68,0,0,0,287,154Z" transform="translate(-191.96 -67.65)" style="fill: none"/>
          <path d="M194.68,100.9a5.26,5.26,0,0,0-2.72,4.41V154a5.28,5.28,0,0,0,2.73,4.41L237,182.72a5.13,5.13,0,0,0,3.26.63L195,100.76Z" transform="translate(-191.96 -67.65)" style="fill: none"/>
          <polygon points="43.63 0 43.05 0.33 43.82 0.33 43.63 0" style="fill: url(#d)"/>
          <path d="M284.31,158.38a5.33,5.33,0,0,0,2.49-3.24L240.48,76a5.16,5.16,0,0,0-3.58.57l-42,24.17,45.34,82.59a5.1,5.1,0,0,0,1.86-.63Z" transform="translate(-191.96 -67.65)" style="fill: url(#e)"/>
          <polygon points="96.28 89.95 96 89.48 96 90.11 96.28 89.95" style="fill: url(#f)"/>
          <path d="M284.31,158.38l-42.18,24.33a5.1,5.1,0,0,1-1.86.63l.84,1.53L288,157.76v-.64l-1.16-2A5.33,5.33,0,0,1,284.31,158.38Z" transform="translate(-191.96 -67.65)" style="fill: url(#g)"/>
          <path d="M284.31,158.38l-42.18,24.33a5.1,5.1,0,0,1-1.86.63l.84,1.53L288,157.76v-.64l-1.16-2A5.33,5.33,0,0,1,284.31,158.38Z" transform="translate(-191.96 -67.65)" style="fill: url(#h)"/>
        </g>
      </g>
    </g>
  </g>
  <g>
    <g>
      <path d="M240.21,155.18a1.47,1.47,0,0,1-.73-.2l-2.34-1.38c-.35-.19-.18-.26-.06-.3a4.66,4.66,0,0,0,1.05-.48.18.18,0,0,1,.18,0l1.79,1.06a.23.23,0,0,0,.22,0l7-4a.22.22,0,0,0,.11-.19v-8.07a.23.23,0,0,0-.11-.19l-7-4a.22.22,0,0,0-.22,0l-7,4a.22.22,0,0,0-.11.19v8.07a.21.21,0,0,0,.11.19L235,151c1,.53,1.68-.09,1.68-.7v-8a.2.2,0,0,1,.2-.2h.89a.2.2,0,0,1,.2.2h0v8a1.94,1.94,0,0,1-2.07,2.18,3,3,0,0,1-1.61-.44l-1.84-1.05a1.48,1.48,0,0,1-.73-1.28V141.6a1.47,1.47,0,0,1,.73-1.27l7-4a1.53,1.53,0,0,1,1.47,0l7,4a1.48,1.48,0,0,1,.74,1.27v8.07a1.48,1.48,0,0,1-.74,1.28l-7,4A1.47,1.47,0,0,1,240.21,155.18Z" transform="translate(-191.96 -67.65)" style="fill: #fff"/>
      <path d="M242.36,149.62c-3.06,0-3.7-1.4-3.7-2.58a.2.2,0,0,1,.2-.2h.9a.2.2,0,0,1,.2.18c.14.92.54,1.39,2.4,1.39,1.47,0,2.1-.33,2.1-1.12,0-.45-.18-.78-2.47-1-1.91-.19-3.1-.61-3.1-2.14s1.19-2.25,3.19-2.25c2.24,0,3.35.78,3.49,2.45a.2.2,0,0,1-.18.22h-.92a.2.2,0,0,1-.2-.16c-.22-1-.75-1.28-2.19-1.28-1.61,0-1.8.56-1.8,1s.22.66,2.39.94,3.17.69,3.17,2.2S244.59,149.62,242.36,149.62Z" transform="translate(-191.96 -67.65)" style="fill: #fff"/>
    </g>
    <path d="M252.45,141.15a1.35,1.35,0,1,1-1.35-1.35A1.35,1.35,0,0,1,252.45,141.15Zm-2.48,0A1.13,1.13,0,1,0,251.1,140h0a1.13,1.13,0,0,0-1.13,1.12Zm.62-.75h.53c.18,0,.53,0,.53.4a.35.35,0,0,1-.29.37c.21,0,.22.15.25.35a1.49,1.49,0,0,0,.08.4h-.32c0-.07-.06-.46-.06-.48s-.05-.13-.16-.13h-.26v.61h-.29Zm.29.66h.23a.2.2,0,0,0,.23-.21c0-.21-.14-.21-.22-.21h-.24Z" transform="translate(-191.96 -67.65)" style="fill: #fff"/>
    <path d="M218.54,123.59a.89.89,0,0,0-.45-.78l-7.42-4.27a.88.88,0,0,0-.41-.12h-.08a.89.89,0,0,0-.41.12l-7.42,4.27a.9.9,0,0,0-.45.78l0,11.49a.44.44,0,0,0,.22.39.43.43,0,0,0,.44,0l4.41-2.53a.9.9,0,0,0,.45-.78V126.8a.89.89,0,0,1,.45-.78l1.88-1.08a.89.89,0,0,1,.45-.12.88.88,0,0,1,.44.12l1.87,1.08a.89.89,0,0,1,.45.78v5.37a.91.91,0,0,0,.45.78l4.41,2.52a.44.44,0,0,0,.45,0,.45.45,0,0,0,.22-.39Z" transform="translate(-191.96 -67.65)" style="fill: #fff"/>
    <path d="M254.22,107.79a.45.45,0,0,0-.67.39v11.38a.31.31,0,0,1-.47.27l-1.85-1.07a.9.9,0,0,0-.89,0L242.91,123a.89.89,0,0,0-.45.78v8.57a.9.9,0,0,0,.45.78l7.42,4.28a.9.9,0,0,0,.9,0l7.42-4.28a.9.9,0,0,0,.45-.78V111a.9.9,0,0,0-.46-.78Zm-.69,21.78a.22.22,0,0,1-.11.19l-2.55,1.47a.22.22,0,0,1-.22,0l-2.55-1.47a.22.22,0,0,1-.11-.19v-2.94a.22.22,0,0,1,.11-.19l2.55-1.47a.22.22,0,0,1,.22,0l2.55,1.47a.22.22,0,0,1,.11.19Z" transform="translate(-191.96 -67.65)" style="fill: #fff"/>
    <g>
      <path d="M278.93,126.56a.9.9,0,0,0,.45-.77v-2.07a.9.9,0,0,0-.45-.78l-7.38-4.28a.9.9,0,0,0-.9,0l-7.42,4.28a.9.9,0,0,0-.45.78v8.56a.89.89,0,0,0,.45.78l7.37,4.2a.89.89,0,0,0,.88,0l4.46-2.48a.45.45,0,0,0,0-.78l-7.46-4.28a.45.45,0,0,1-.23-.39v-2.68a.45.45,0,0,1,.22-.39l2.32-1.34a.45.45,0,0,1,.45,0l2.32,1.34a.45.45,0,0,1,.22.39v2.1a.45.45,0,0,0,.67.39Z" transform="translate(-191.96 -67.65)" style="fill: #fff"/>
      <path d="M271,126.16a.18.18,0,0,1,.18,0l1.43.82a.18.18,0,0,1,.09.15v1.64a.18.18,0,0,1-.09.15l-1.42.82a.18.18,0,0,1-.18,0l-1.43-.82a.18.18,0,0,1-.09-.15v-1.64a.18.18,0,0,1,.09-.15Z" transform="translate(-191.96 -67.65)" style="fill: #fff"/>
    </g>
    <path d="M230.95,118.7a.89.89,0,0,0-.89,0L222.68,123a.89.89,0,0,0-.45.77v8.52a.89.89,0,0,0,.44.77l7.37,4.26a.89.89,0,0,0,.89,0l7.38-4.26a.89.89,0,0,0,.44-.77v-8.52a.89.89,0,0,0-.45-.77Z" transform="translate(-191.96 -67.65)" style="fill: #fff"/>
  </g>
</svg>
