<?xml version="1.0" encoding="utf-8"?>
<!-- Generator: Adobe Illustrator 24.1.1, SVG Export Plug-In . SVG Version: 6.00 Build 0)  -->
<svg version="1.1" id="Layer_1" xmlns="http://www.w3.org/2000/svg" xmlns:xlink="http://www.w3.org/1999/xlink" x="0px" y="0px"
	 viewBox="0 0 512 512" style="enable-background:new 0 0 512 512;" xml:space="preserve">
<style type="text/css">
	.st0{fill:#DFDEDF;}
	.st1{fill:#FFFFFF;}
	.st2{fill:#00D8A2;}
</style>
<g>
	<path class="st0" d="M424,287H87.4v-19c0-12.8,10.3-23.1,23.1-23.1h290.4c12.8,0,23.1,10.3,23.1,23.1V287z"/>
	<path class="st1" d="M400.6,507.2H110.9c-13,0-23.4-10.5-23.4-23.4V287H424v196.7C424,496.7,413.5,507.2,400.6,507.2"/>
	<path d="M419.9,283.2v-17c0-10-8.1-18.2-18.2-18.2H110.3c-10,0-18.2,8.1-18.2,18.2v17H419.9z M419.9,486.2V290.9H92.1v195.3
		c0,10,8.1,18.2,18.2,18.2h291.3C411.7,504.4,419.9,496.2,419.9,486.2z M112,240.4l1.1-12.4l-4.8,12.5c0.7,0,1.3-0.1,2-0.1H112z
		 M398,219.5l1.7,20.9h2c1.1,0,2.1,0.1,3.2,0.2L398,219.5z M421.1,249.2c4,4.5,6.4,10.5,6.4,17v220c0,14.2-11.6,25.8-25.8,25.8
		H110.3c-14.2,0-25.8-11.6-25.8-25.8v-220c0-6.9,2.7-13.2,7.2-17.8l25.8-66.7L128.6,59l12.7,1.2l-10.1,110.5l3.6,1.4l-4.8,12.5
		l-5.1,55.8h262.1L372.3,59.8l12.7-1l8.6,106.5l0,0L421.1,249.2z M112.9,260.5c3.2,0,5.8,2.6,5.8,5.8c0,3.2-2.6,5.8-5.8,5.8
		c-3.2,0-5.8-2.6-5.8-5.8C107.1,263,109.7,260.5,112.9,260.5z M132.6,260.5c3.2,0,5.8,2.6,5.8,5.8c0,3.2-2.6,5.8-5.8,5.8
		c-3.2,0-5.8-2.6-5.8-5.8C126.8,263,129.4,260.5,132.6,260.5z M151.6,260.5c3.2,0,5.8,2.6,5.8,5.8c0,3.2-2.6,5.8-5.8,5.8
		c-3.2,0-5.8-2.6-5.8-5.8C145.9,263,148.5,260.5,151.6,260.5z"/>
	<path d="M132.8,385.5c1-1.1,1.5-2.7,1.5-4.5c0-1.9-0.5-3.3-1.5-4.5c-1-1.1-2.5-1.7-4.4-1.7h-9.2v12.4h9.2
		C130.3,387.2,131.7,386.7,132.8,385.5z M128.4,367.4c4,0,7.1,1.2,9.4,3.7c2.3,2.5,3.5,5.8,3.5,9.9c0,4.2-1.1,7.4-3.4,9.9
		c-2.3,2.5-5.5,3.7-9.5,3.7h-9.2v16.6h-7.1v-43.8H128.4z M166.6,394.3v-12.8h7.6v28.9h-7.6v-2.6c-2.3,2.3-5.3,3.5-9.1,3.5
		c-3.5,0-6.2-1.2-8.4-3.4c-2.1-2.3-3.2-5.1-3.2-8.7v-17.6h7.6v16c0,2,0.5,3.7,1.6,4.9c1,1.2,2.4,1.9,4.2,1.9
		C164.3,404.3,166.6,401,166.6,394.3z M204,402.2c1.5-1.6,2.3-3.6,2.3-6.2c0-2.6-0.8-4.7-2.3-6.3c-1.6-1.6-3.5-2.4-5.8-2.4
		c-2.1,0-4,0.8-5.7,2.4c-1.7,1.6-2.5,3.7-2.5,6.2c0,2.5,0.8,4.6,2.5,6.2c1.7,1.6,3.6,2.4,5.7,2.4C200.6,404.6,202.5,403.8,204,402.2
		z M199.5,380.7c3.8,0,7.1,1.4,9.9,4.3c2.8,2.9,4.2,6.6,4.2,11s-1.4,8-4.2,10.9c-2.8,2.9-6.1,4.3-9.9,4.3c-3.8,0-6.9-1-9.5-3.1v16
		h-7.6v-42.6h7.6v2.3C192.5,381.7,195.7,380.7,199.5,380.7z M241.2,402.2c1.5-1.6,2.3-3.6,2.3-6.2c0-2.6-0.8-4.7-2.3-6.3
		c-1.6-1.6-3.5-2.4-5.8-2.4c-2.1,0-4,0.8-5.7,2.4s-2.5,3.7-2.5,6.2c0,2.5,0.8,4.6,2.5,6.2c1.7,1.6,3.6,2.4,5.7,2.4
		C237.7,404.6,239.6,403.8,241.2,402.2z M236.7,380.7c3.8,0,7.1,1.4,9.9,4.3c2.8,2.9,4.2,6.6,4.2,11s-1.4,8-4.2,10.9
		c-2.8,2.9-6.1,4.3-9.9,4.3c-3.8,0-6.9-1-9.5-3.1v16h-7.6v-42.6h7.6v2.3C229.7,381.7,232.8,380.7,236.7,380.7z M262.1,392.6H276
		c-0.5-1.8-1.3-3.1-2.5-4c-1.2-0.9-2.7-1.3-4.3-1.3c-1.6,0-3.1,0.5-4.4,1.4C263.4,389.6,262.5,391,262.1,392.6z M269.2,380.7
		c3.9,0,7.3,1.4,10.2,4.1c2.8,2.8,4.3,6.3,4.5,10.6v2.6h-22c0.4,2,1.3,3.6,2.6,4.9c1.3,1.2,2.8,1.8,4.6,1.8c3.3,0,5.7-1.3,7.2-3.8
		l6.8,1.4c-1.2,3-3.1,5.1-5.5,6.7c-2.4,1.5-5.3,2.3-8.5,2.3c-4.2,0-7.7-1.4-10.5-4.3c-2.8-2.8-4.3-6.5-4.3-11c0-4.5,1.4-8.2,4.3-11
		C261.5,382.1,265,380.7,269.2,380.7z M304.9,404.1c1.4,0,3.1-0.5,4.8-1.4l2.2,6.4c-2.7,1.4-5.1,2.1-7.5,2.1c-3.5,0-6.3-1-8.3-2.9
		c-2-1.9-3-4.7-3-8.6v-12h-6.2v-6.2h6.2v-8.7h7.6v8.7h9.4v6.2h-9.4v11.4C300.7,402.5,302.1,404.1,304.9,404.1z M320.9,392.6h13.9
		c-0.5-1.8-1.3-3.1-2.5-4c-1.2-0.9-2.7-1.3-4.3-1.3c-1.6,0-3.1,0.5-4.4,1.4C322.2,389.6,321.3,391,320.9,392.6z M328,380.7
		c3.9,0,7.3,1.4,10.2,4.1c2.8,2.8,4.3,6.3,4.5,10.6v2.6h-22c0.4,2,1.3,3.6,2.6,4.9c1.3,1.2,2.8,1.8,4.6,1.8c3.3,0,5.7-1.3,7.2-3.8
		l6.8,1.4c-1.2,3-3.1,5.1-5.5,6.7c-2.4,1.5-5.3,2.3-8.5,2.3c-4.2,0-7.7-1.4-10.5-4.3c-2.8-2.8-4.3-6.5-4.3-11c0-4.5,1.4-8.2,4.3-11
		C320.3,382.1,323.8,380.7,328,380.7z M355.2,392.6h13.9c-0.5-1.8-1.3-3.1-2.5-4c-1.2-0.9-2.7-1.3-4.3-1.3c-1.6,0-3.1,0.5-4.4,1.4
		C356.5,389.6,355.6,391,355.2,392.6z M362.3,380.7c3.9,0,7.3,1.4,10.2,4.1c2.8,2.8,4.3,6.3,4.5,10.6v2.6h-22c0.4,2,1.3,3.6,2.6,4.9
		c1.3,1.2,2.8,1.8,4.6,1.8c3.3,0,5.7-1.3,7.2-3.8l6.8,1.4c-1.2,3-3.1,5.1-5.5,6.7c-2.4,1.5-5.3,2.3-8.5,2.3c-4.2,0-7.7-1.4-10.5-4.3
		c-2.8-2.8-4.3-6.5-4.3-11c0-4.5,1.4-8.2,4.3-11C354.6,382.1,358.1,380.7,362.3,380.7z M400.7,381.1c0.9,0,1.6,0.1,2,0.2l-0.4,7.3
		h-1.7c-6.9,0-10.3,4.1-10.3,12.4v9.3h-7.6v-28.9h7.6v5.3C393,383,396.4,381.1,400.7,381.1z"/>
	<polygon class="st2" points="367.3,177.7 408.5,157.8 408.5,137.9 313.4,92.5 408.5,43.5 408.5,24.3 368.8,5.9 256.1,62 141.5,5.9 
		104.6,25.7 104.6,42.8 194.1,91.8 104.6,137.2 104.6,157.8 142.9,177.7 256.6,119.5 	"/>
	<path d="M372.5,169.6V161l31-16.1v9.6L372.5,169.6z M107.1,144.7l30,17.2v6.8l-30-15.2V144.7z M260.5,108.6l103.1,50.9v10.2
		l-103.1-52.8V108.6z M145.9,161l105.7-52.4v8.3l-105.7,53.5V161z M220.8,75.4L113.8,23.7l27.7-14.1L256.1,69L368.7,9.7l28.7,14.7
		L293.1,76.9c-4.2,2.1-4.2,8.1,0,10.1l103.2,51.7l-26.8,13.9L256.1,94.4l-115.5,59.3l-26.4-15.1l106.6-53
		C225.1,83.5,225,77.4,220.8,75.4z M108.4,41.2v-9.4l99.7,49.8l-10.1,4L108.4,41.2z M312.9,86.2c-0.1-0.1-9.6-4.5-9.6-4.5
		l100.1-50.4v9.4L312.9,86.2z M323,91.1l88-44.2c0.9-0.4,1.5-1.4,1.5-2.4V23.7c0-1-0.6-1.9-1.4-2.3l-41-21c-0.8-0.4-1.6-0.4-2.4,0
		l-110.3,56c-0.7,0.4-1.6,0.4-2.4,0l-112.2-56c-0.7-0.4-1.6-0.4-2.4,0L99.6,21c-0.9,0.5-1.4,1.4-1.4,2.4v21.2c0,1,0.6,1.9,1.5,2.4
		L188,90.6l-88,43.7c-0.9,0.4-1.4,1.3-1.5,2.3l-0.4,20.9c0,1,0.5,1.9,1.4,2.4l42.3,21.4c0.7,0.4,1.6,0.4,2.4,0l110.6-55.5
		c0.7-0.4,1.6-0.4,2.4,0l109.2,55.5c0.7,0.4,1.6,0.4,2.3,0l42.1-20.4c0.9-0.4,1.5-1.4,1.5-2.4v-21.8c0-1-0.6-1.9-1.5-2.4L323,91.1z"
		/>
</g>
</svg>
