<svg xmlns="http://www.w3.org/2000/svg" viewBox="0 0 100.06 100.05">
  <title>swagger_logo</title>
  <g>
    <g>
      <path d="M50.33,97.67A47.64,47.64,0,1,1,98,50,47.7,47.7,0,0,1,50.33,97.67Z" transform="translate(-0.3)" style="fill: #85ea2d"/>
      <path d="M50.33,4.77A45.26,45.26,0,1,1,5.07,50,45.26,45.26,0,0,1,50.33,4.77m0-4.77a50,50,0,1,0,50,50,50.08,50.08,0,0,0-50-50Z" transform="translate(-0.3)" style="fill: #173647"/>
    </g>
    <path d="M31.8,33.85c-.15,1.71.06,3.48-.06,5.21a42.64,42.64,0,0,1-.69,5.16A9.53,9.53,0,0,1,27,50.05C31,52.71,31.49,56.82,31.76,61c.14,2.25.08,4.52.31,6.75.17,1.73.85,2.17,2.64,2.23.73,0,1.48,0,2.33,0v5.35c-5.29.9-9.66-.6-10.74-5.08a30.76,30.76,0,0,1-.65-5c-.12-1.79.08-3.58-.06-5.37-.39-4.91-1-6.56-5.71-6.79V47a9.27,9.27,0,0,1,1-.17c2.58-.13,3.67-.92,4.23-3.46A29.3,29.3,0,0,0,25.61,39a82.36,82.36,0,0,1,.6-8.41c.67-4,3.14-5.91,7.23-6.14,1.15-.06,2.33,0,3.65,0V30c-.56,0-1,.11-1.54.11C32.23,29.95,32.05,31.08,31.8,33.85Zm6.41,12.66h-.08a3.51,3.51,0,0,0-.35,7H38a3.46,3.46,0,0,0,3.65-3.25v-.19A3.52,3.52,0,0,0,38.21,46.51Zm12.06,0a3.37,3.37,0,0,0-3.48,3.25,1.79,1.79,0,0,0,0,.33,3.3,3.3,0,0,0,3.58,3.44A3.26,3.26,0,0,0,53.83,50,3.31,3.31,0,0,0,50.27,46.51Zm12.35,0A3.59,3.59,0,0,0,59,50a3.53,3.53,0,0,0,3.54,3.54h0c1.77.31,3.56-1.4,3.67-3.46A3.57,3.57,0,0,0,62.62,46.51Zm16.95.29c-2.23-.1-3.35-.85-3.9-3A21.45,21.45,0,0,1,75,39.7c-.15-2.58-.14-5.17-.31-7.75-.4-6.12-4.83-8.25-11.25-7.19v5.31c1,0,1.81,0,2.6,0,1.37,0,2.4.54,2.54,2.06s.14,2.79.27,4.19c.27,2.79.42,5.62.9,8.37a8.72,8.72,0,0,0,3.92,5.35c-3.4,2.29-4.4,5.56-4.58,9.23-.1,2.52-.15,5.06-.29,7.6-.12,2.31-.92,3.06-3.25,3.12-.65,0-1.29.08-2,.12v5.44c1.37,0,2.62.08,3.87,0,3.89-.23,6.23-2.12,7-5.89A49.08,49.08,0,0,0,75,63.4c.13-1.92.12-3.87.31-5.77.29-3,1.65-4.21,4.64-4.4a4,4,0,0,0,.83-.19v-6.1C80.28,46.88,79.93,46.82,79.57,46.8Z" transform="translate(-0.3)" style="fill: #173647"/>
  </g>
</svg>
